<?xml version="1.0" standalone="no"?><!DOCTYPE svg PUBLIC "-//W3C//DTD SVG 1.1//EN" "http://www.w3.org/Graphics/SVG/1.1/DTD/svg11.dtd"><svg t="1643183775076" class="icon" viewBox="0 0 1024 1024" version="1.1" xmlns="http://www.w3.org/2000/svg" p-id="2645" xmlns:xlink="http://www.w3.org/1999/xlink" width="200" height="200"><defs><style type="text/css"></style></defs><path d="M128 448l640 0 0 64-640 0 0-64Z" p-id="2646"></path><path d="M930.6 130 223.4 130c-51.6 0-93.4 41.8-93.4 93.4L130 256 93.4 256C41.8 256 0 297.8 0 349.4l0 453.1C0 854.2 41.8 896 93.4 896l707.1 0c51.6 0 93.4-41.8 93.4-93.4L893.9 770l36.6 0c51.6 0 93.4-41.8 93.4-93.4L1023.9 223.4C1024 171.8 982.2 130 930.6 130zM830 802.6c0 16.2-13.2 29.4-29.4 29.4L93.4 832C77.2 832 64 818.8 64 802.6L64 349.4c0-16.2 13.2-29.4 29.4-29.4L130 320l670.6 0c13.7 0 25.2 9.4 28.5 22.1 0.6 2.3 0.9 4.8 0.9 7.3L830 770 830 802.6zM960 676.6c0 16.2-13.2 29.4-29.4 29.4L894 706 894 349.4c0-51.6-41.8-93.4-93.4-93.4l0 0L194 256l0-32.6c0-16.2 13.2-29.4 29.4-29.4l707.1 0c16.2 0 29.4 13.2 29.4 29.4L959.9 676.6z" p-id="2647"></path></svg>